# Blender 4.0.1
# www.blender.org
o Cube.002
v 2.208258 3.266787 -1.270102
v 3.082275 2.469931 -1.504591
v 1.592588 2.873812 -2.229473
v 2.466605 2.076956 -2.463962
v 1.650661 2.451642 -0.578369
v 2.524678 1.654786 -0.812858
v 1.034990 2.058666 -1.537740
v 1.909008 1.261810 -1.772229
vn 0.4624 0.6760 -0.5737
vn -0.5106 -0.3259 -0.7957
vn -0.4624 -0.6760 0.5737
vn 0.5106 0.3259 0.7957
vn -0.7249 0.6609 0.1945
vn 0.7249 -0.6609 -0.1945
s 0
f 2//1 3//1 1//1
f 4//2 7//2 3//2
f 8//3 5//3 7//3
f 6//4 1//4 5//4
f 7//5 1//5 3//5
f 4//6 6//6 8//6
f 2//1 4//1 3//1
f 4//2 8//2 7//2
f 8//3 6//3 5//3
f 6//4 2//4 1//4
f 7//5 5//5 1//5
f 4//6 2//6 6//6
