# Blender 4.0.1
# www.blender.org
o Cube
v -3.099275 -0.448048 2.691498
v -3.099275 -0.040056 2.691498
v -3.099275 -0.448048 -2.691498
v -3.099275 -0.040056 -2.691498
v 3.099275 -0.448048 2.691498
v 3.099275 -0.040056 2.691498
v 3.099275 -0.448048 -2.691498
v 3.099275 -0.040056 -2.691498
vn -1.0000 -0.0000 -0.0000
vn -0.0000 -0.0000 -1.0000
vn 1.0000 -0.0000 -0.0000
vn -0.0000 -0.0000 1.0000
vn -0.0000 -1.0000 -0.0000
vn -0.0000 1.0000 -0.0000
s 0
f 2//1 3//1 1//1
f 4//2 7//2 3//2
f 8//3 5//3 7//3
f 6//4 1//4 5//4
f 7//5 1//5 3//5
f 4//6 6//6 8//6
f 2//1 4//1 3//1
f 4//2 8//2 7//2
f 8//3 6//3 5//3
f 6//4 2//4 1//4
f 7//5 5//5 1//5
f 4//6 2//6 6//6
o Suzanne
v 0.352230 1.213435 0.765291
v -0.352230 1.213435 0.765291
v 0.000000 1.405750 0.608286
v -0.000000 1.517346 0.555836
v 0.000000 1.870796 -0.550510
v -0.000000 1.528381 -0.855976
v 0.000000 1.041229 -0.820107
v 0.000000 0.587263 -0.351015
v 0.349991 0.274525 0.569713
v -0.349991 0.274525 0.569713
v -0.337853 0.046339 0.495537
v 0.435388 0.856284 0.499000
v 0.803446 1.128389 0.410267
v 0.856492 1.398755 0.588340
v -0.856492 1.398755 0.588340
v 0.554389 1.172252 0.672218
v 0.320070 1.726972 0.734196
v -0.320070 1.726972 0.734196
v 0.157052 1.688852 0.757053
v -0.157052 1.688852 0.757053
v -0.554389 1.172252 0.672218
v -0.257964 1.598671 0.845233
v 0.257964 1.598671 0.845233
v 0.000000 1.016619 0.738074
v -0.000000 0.736595 0.773913
v 0.000000 0.144228 0.673607
v -0.000000 1.298732 0.765111
v 0.195295 1.633580 0.617212
v -0.195295 1.633580 0.617212
v 0.335874 1.658122 0.593631
v -0.335874 1.658122 0.593631
v -0.474100 1.511902 0.494705
v -0.803446 1.128389 0.410267
v -0.435388 0.856284 0.499000
v -0.000000 1.872296 0.295326
v 0.000000 1.955983 -0.078054
v 0.000000 0.773532 -0.672411
v -0.000000 0.168085 0.347227
v 0.850812 1.244705 0.004511
v -0.850812 1.244705 0.004511
v 0.807845 1.218495 -0.402043
v 0.457529 1.405936 -0.696746
v -0.457529 1.405936 -0.696746
v 0.728187 0.928721 0.068791
v -0.728187 0.928721 0.068791
v 0.597258 0.844982 -0.164439
v -0.597258 0.844982 -0.164439
v 0.639267 0.959983 -0.431363
v -0.639267 0.959983 -0.431363
v 0.336828 1.024681 -0.667644
v -0.336828 1.024681 -0.667644
v -0.191409 0.569906 0.214166
v 0.292444 0.258139 0.379527
v -0.292444 0.258139 0.379527
v 0.000000 0.444850 0.326748
v 0.337853 0.046339 0.495537
v 0.140985 0.211595 0.367698
v -0.150514 0.277132 0.361665
v 0.230173 0.707362 0.507054
v -0.230173 0.707362 0.507054
v 0.191409 0.569905 0.214166
v 0.298807 0.655674 -0.266008
v -0.298807 0.655674 -0.266008
v 0.342788 0.822951 -0.538433
v -0.342788 0.822951 -0.538433
v 0.455199 1.838393 -0.386305
v -0.455199 1.838393 -0.386305
v 0.453122 1.899123 -0.070656
v -0.453122 1.899123 -0.070656
v 0.451136 1.819272 0.230124
v -0.451136 1.819272 0.230124
v 0.474100 1.511902 0.494705
v 0.726470 1.391381 0.394429
v -0.726470 1.391381 0.394429
v 0.640952 1.671207 0.053858
v -0.640952 1.671207 0.053858
v 0.799002 1.535226 0.126115
v -0.799002 1.535226 0.126115
v 0.795971 1.585997 -0.117268
v -0.795971 1.585997 -0.117268
v 0.641108 1.720412 -0.195019
v -0.641108 1.720412 -0.195019
v 0.638600 1.647373 -0.441218
v -0.638600 1.647373 -0.441218
v 0.791774 1.508846 -0.357337
v -0.791774 1.508846 -0.357337
v 0.618287 1.301662 -0.588133
v -0.618287 1.301662 -0.588133
v 0.487278 0.989363 -0.550500
v -0.487278 0.989363 -0.550500
v 0.411521 0.791115 0.150227
v -0.411521 0.791115 0.150227
v 0.426739 0.779349 -0.209403
v -0.426739 0.779349 -0.209403
v -1.240349 1.313709 -0.446163
v -1.037699 0.940415 -0.348843
v -1.235340 1.044010 -0.447796
v 1.235340 1.044010 -0.447796
v 1.037699 0.940415 -0.348842
v 0.888381 1.126858 -0.288466
v -0.888381 1.126858 -0.288466
v 1.022338 1.407891 -0.486785
v -1.022338 1.407891 -0.486785
v 1.240349 1.313709 -0.446163
v -0.807845 1.218495 -0.402043
v 1.040651 0.882228 -0.489729
v -1.040651 0.882228 -0.489729
v 0.788604 0.850642 -0.324674
v -0.788604 0.850642 -0.324674
v 0.862466 1.350337 -0.384529
v -0.862466 1.350337 -0.384529
vn 0.3735 -0.3047 0.8762
vn -0.3735 -0.3047 0.8762
vn 0.7397 0.2925 0.6060
vn -0.3344 -0.1573 0.9292
vn 0.5152 -0.6819 0.5191
vn -0.5485 -0.5512 0.6287
vn 0.5701 -0.5270 0.6303
vn -0.5701 -0.5270 0.6303
vn 0.7658 -0.5907 -0.2542
vn -0.7658 -0.5907 -0.2542
vn -0.0521 0.6678 0.7425
vn 0.0521 0.6678 0.7425
vn -0.5187 0.2259 0.8246
vn 0.5187 0.2259 0.8246
vn 0.1687 0.0154 0.9856
vn -0.1687 0.0154 0.9856
vn -1.0000 -0.0000 -0.0000
vn -0.8964 0.3660 0.2498
vn 0.6798 0.5993 -0.4228
vn -0.2620 0.8709 -0.4159
vn 0.2262 0.8645 -0.4489
vn 0.7617 -0.5439 0.3521
vn -0.5213 -0.0819 0.8494
vn 0.2522 0.4944 0.8319
vn -0.5138 0.4896 0.7045
vn -0.5125 0.7995 0.3132
vn 0.5125 0.7995 0.3132
vn 0.8095 0.2038 -0.5506
vn -0.8095 0.2038 -0.5506
vn 0.1653 -0.0728 -0.9836
vn -0.1475 -0.0730 -0.9864
vn 0.3034 -0.9503 -0.0695
vn -0.5894 -0.8057 -0.0589
vn 0.5528 0.7991 -0.2361
vn -0.1475 0.9806 -0.1291
vn 0.1100 -0.1070 -0.9882
vn 0.2026 -0.4367 -0.8765
vn 0.4815 -0.6982 -0.5298
vn 0.6306 -0.7313 0.2598
vn -0.6306 -0.7313 0.2598
vn 0.5842 0.0444 -0.8104
vn -0.5842 0.0444 -0.8104
vn 0.3491 -0.4527 -0.8205
vn -0.3776 -0.4915 -0.7848
vn 0.3054 -0.8239 -0.4775
vn -0.3201 -0.8295 -0.4577
vn 0.4603 -0.8688 -0.1826
vn -0.4603 -0.8688 -0.1826
vn 0.9326 -0.3608 0.0054
vn -0.9326 -0.3608 0.0054
vn 0.3112 -0.0698 -0.9478
vn -0.3966 -0.1940 -0.8972
vn 0.1448 0.9655 0.2164
vn -0.1163 0.9598 0.2556
vn 0.1329 0.9754 -0.1759
vn -0.1329 0.9754 -0.1759
vn 0.4011 0.6098 -0.6836
vn -0.4011 0.6098 -0.6836
vn 0.4118 0.7521 0.5145
vn -0.4118 0.7521 0.5145
vn 0.6019 0.7833 0.1552
vn -0.6019 0.7833 0.1552
vn 0.7159 0.6673 -0.2053
vn -0.7159 0.6673 -0.2053
vn 0.7247 0.1439 -0.6739
vn -0.6383 0.2690 -0.7213
vn 0.6516 0.2639 -0.7111
vn -0.6516 0.2639 -0.7111
vn 0.6723 0.7078 -0.2168
vn -0.6723 0.7078 -0.2168
vn 0.7278 0.6727 0.1335
vn -0.7278 0.6727 0.1335
vn 0.7705 0.4479 0.4535
vn -0.5247 0.7177 0.4579
vn 0.1101 0.5881 0.8013
vn -0.1830 0.6492 0.7383
vn -0.2822 0.2779 -0.9182
vn 0.2188 0.3964 -0.8916
vn 0.1207 0.4222 0.8984
vn -0.1207 0.4222 0.8984
vn 0.9388 0.2863 0.1917
vn -0.9388 0.2863 0.1917
vn 0.9569 0.0509 0.2860
vn -0.9569 0.0509 0.2860
vn 0.9858 0.1664 0.0224
vn -0.9858 0.1664 0.0224
vn 0.8541 0.1250 -0.5048
vn -0.9693 0.2288 -0.0905
vn 0.7134 -0.6999 0.0346
vn -0.6819 -0.7295 0.0527
vn 0.4165 -0.9046 0.0910
vn -0.3484 -0.9362 0.0454
vn 0.7474 -0.5130 0.4223
vn -0.4244 -0.8949 0.1382
vn 0.5866 -0.8024 0.1098
vn -0.5866 -0.8024 0.1098
vn 0.7227 -0.6576 0.2130
vn -0.7227 -0.6576 0.2130
vn 0.5960 -0.3044 -0.7431
vn -0.5448 -0.3218 -0.7744
vn 0.4508 -0.2090 -0.8678
vn -0.5347 -0.3186 -0.7827
vn 0.4111 -0.8589 -0.3054
vn -0.2154 -0.8482 -0.4840
vn 0.7283 -0.6301 -0.2693
vn -0.7177 -0.6426 -0.2683
vn 0.4733 -0.4652 -0.7481
vn -0.4733 -0.4652 -0.7481
vn 0.6669 -0.7370 -0.1097
vn -0.6669 -0.7370 -0.1097
vn 0.9202 -0.3079 0.2418
vn -0.9202 -0.3079 0.2418
vn 0.4265 0.0491 0.9032
vn -0.4265 0.0491 0.9032
vn 0.4147 -0.0132 0.9099
vn -0.4147 -0.0132 0.9099
vn 0.3468 -0.8643 0.3642
vn -0.3468 -0.8643 0.3642
vn 0.5617 -0.7605 0.3258
vn -0.5617 -0.7605 0.3258
vn 0.0818 0.5483 0.8323
vn -0.0818 0.5483 0.8323
vn 0.3864 0.4017 0.8302
vn -0.3864 0.4017 0.8302
vn -0.1130 0.1767 -0.9778
vn 0.1130 0.1767 -0.9778
vn 0.2006 0.0125 -0.9796
vn -0.2006 0.0125 -0.9796
vn -0.7122 0.2059 0.6711
vn 0.7122 0.2059 0.6711
vn 0.6145 -0.3167 0.7226
vn -0.6145 -0.3167 0.7226
vn -0.4648 -0.2055 -0.8612
vn 0.4648 -0.2055 -0.8612
vn 0.3344 -0.1573 0.9292
vn -0.7397 0.2925 0.6060
vn 0.5485 -0.5512 0.6287
vn -0.5152 -0.6819 0.5191
vn -0.6798 0.5993 -0.4228
vn 0.8964 0.3660 0.2498
vn -0.2262 0.8645 -0.4489
vn 0.2620 0.8709 -0.4159
vn 0.5213 -0.0819 0.8494
vn -0.7617 -0.5439 0.3521
vn 0.5138 0.4896 0.7045
vn -0.2522 0.4944 0.8319
vn 0.9551 0.0444 -0.2928
vn -0.9551 0.0444 -0.2928
vn -0.6466 0.4524 -0.6143
vn -0.4368 -0.8150 -0.3808
vn -0.0476 -0.4720 -0.8803
vn 0.3776 -0.4915 -0.7848
vn -0.3491 -0.4527 -0.8205
vn 0.3201 -0.8295 -0.4577
vn -0.3054 -0.8239 -0.4775
vn 0.2527 -0.9607 -0.1151
vn -0.2527 -0.9607 -0.1151
vn 0.3029 -0.8503 0.4304
vn -0.3029 -0.8503 0.4304
vn 0.3966 -0.1940 -0.8972
vn -0.3112 -0.0698 -0.9478
vn 0.1163 0.9598 0.2556
vn -0.1448 0.9655 0.2164
vn 0.1253 0.9744 -0.1866
vn -0.1253 0.9744 -0.1866
vn 0.3171 0.5542 -0.7696
vn -0.3171 0.5542 -0.7696
vn 0.6023 0.7829 0.1558
vn -0.6023 0.7829 0.1558
vn 0.7011 0.6752 -0.2292
vn -0.7011 0.6752 -0.2292
vn 0.6383 0.2690 -0.7213
vn -0.7247 0.1439 -0.6739
vn 0.3435 0.5489 -0.7620
vn -0.3435 0.5489 -0.7620
vn 0.6308 0.7627 -0.1426
vn -0.6308 0.7627 -0.1426
vn 0.7059 0.6834 0.1861
vn -0.7059 0.6834 0.1861
vn 0.5247 0.7177 0.4579
vn -0.7705 0.4479 0.4535
vn 0.1830 0.6492 0.7383
vn -0.1101 0.5881 0.8013
vn -0.2188 0.3964 -0.8916
vn 0.2822 0.2779 -0.9182
vn 0.9826 0.1774 0.0546
vn -0.9826 0.1774 0.0546
vn 0.9693 0.2288 -0.0905
vn -0.8541 0.1250 -0.5048
vn 0.6819 -0.7295 0.0527
vn -0.7134 -0.6999 0.0346
vn 0.3484 -0.9362 0.0454
vn -0.4165 -0.9046 0.0910
vn 0.4244 -0.8949 0.1382
vn -0.7474 -0.5130 0.4223
vn 0.5448 -0.3218 -0.7744
vn -0.5960 -0.3044 -0.7431
vn 0.5347 -0.3186 -0.7827
vn -0.4508 -0.2090 -0.8678
vn 0.2154 -0.8482 -0.4840
vn -0.4111 -0.8589 -0.3054
vn 0.7177 -0.6426 -0.2683
vn -0.7283 -0.6301 -0.2693
vn 0.1608 -0.1852 0.9695
vn -0.1608 -0.1852 0.9695
vn -0.5352 -0.0139 -0.8446
vn -0.5287 -0.1481 -0.8358
vn 0.5287 -0.1481 -0.8358
vn 0.5352 -0.0139 -0.8446
vn 0.1842 0.0025 -0.9829
vn -0.1842 0.0025 -0.9829
vn -0.3240 -0.8493 -0.4169
vn 0.3240 -0.8493 -0.4169
s 0
f 17//7 34//7 64//7
f 34//8 18//8 19//8
f 33//9 17//9 67//9
f 33//10 18//10 34//10
f 20//11 33//11 67//11
f 42//12 33//12 29//12
f 21//13 22//13 24//13
f 29//14 23//14 41//14
f 35//15 25//15 31//15
f 30//16 26//16 35//16
f 25//17 27//17 31//17
f 30//18 28//18 26//18
f 27//19 35//19 31//19
f 35//20 28//20 30//20
f 35//21 33//21 24//21
f 29//22 33//22 35//22
f 35//23 32//23 33//23
f 27//24 11//24 35//24
f 28//25 11//25 37//25
f 25//26 36//26 27//26
f 26//27 37//27 39//27
f 35//28 38//28 25//28
f 35//29 39//29 40//29
f 24//30 80//30 35//30
f 29//31 40//31 82//31
f 24//32 22//32 81//32
f 82//33 23//33 29//33
f 22//34 21//34 81//34
f 41//35 23//35 82//35
f 46//36 63//36 65//36
f 63//37 46//37 66//37
f 34//38 46//38 65//38
f 66//39 46//39 34//39
f 17//40 61//40 63//40
f 62//41 18//41 66//41
f 61//42 65//42 63//42
f 64//43 65//43 61//43
f 19//44 66//44 34//44
f 67//45 63//45 69//45
f 63//46 68//46 60//46
f 67//47 17//47 63//47
f 63//48 18//48 68//48
f 58//49 45//49 15//49
f 59//50 45//50 73//50
f 72//51 16//51 45//51
f 73//52 16//52 71//52
f 16//53 69//53 63//53
f 60//54 16//54 63//54
f 21//55 52//55 47//55
f 53//56 41//56 48//56
f 50//57 15//57 14//57
f 51//58 15//58 59//58
f 78//59 44//59 43//59
f 79//60 44//60 77//60
f 44//61 74//61 13//61
f 75//62 44//62 13//62
f 13//63 50//63 14//63
f 51//64 13//64 14//64
f 81//65 85//65 83//65
f 86//66 82//66 84//66
f 83//67 87//67 89//67
f 88//68 84//68 90//68
f 89//69 93//69 91//69
f 94//70 90//70 92//70
f 95//71 93//71 49//71
f 96//72 94//72 92//72
f 50//73 91//73 95//73
f 92//74 51//74 96//74
f 74//75 89//75 91//75
f 90//76 75//76 92//76
f 76//77 83//77 89//77
f 84//78 77//78 90//78
f 80//79 83//79 78//79
f 40//80 84//80 82//80
f 80//81 43//81 12//81
f 40//82 43//82 79//82
f 36//83 80//83 11//83
f 37//84 40//84 39//84
f 11//85 80//85 12//85
f 40//86 11//86 12//86
f 81//87 21//87 47//87
f 48//88 41//88 82//88
f 47//89 85//89 81//89
f 86//90 48//90 82//90
f 47//91 87//91 85//91
f 88//92 48//92 86//92
f 93//93 108//93 49//93
f 94//94 109//94 88//94
f 70//95 99//95 69//95
f 71//96 100//96 102//96
f 99//97 54//97 52//97
f 100//98 55//98 102//98
f 20//99 52//99 24//99
f 42//100 53//100 100//100
f 20//101 67//101 99//101
f 68//102 42//102 100//102
f 67//103 69//103 99//103
f 100//104 60//104 68//104
f 56//105 95//105 49//105
f 57//106 96//106 98//106
f 95//107 58//107 50//107
f 96//108 59//108 98//108
f 101//109 56//109 54//109
f 102//110 57//110 98//110
f 72//111 101//111 70//111
f 73//112 102//112 98//112
f 58//113 97//113 72//113
f 73//114 98//114 59//114
f 52//115 54//115 108//115
f 109//116 55//116 53//116
f 47//117 52//117 108//117
f 109//118 53//118 48//118
f 106//119 108//119 107//119
f 109//120 105//120 104//120
f 112//121 108//121 106//121
f 109//122 103//122 105//122
f 107//123 116//123 114//123
f 117//124 104//124 115//124
f 106//125 107//125 114//125
f 115//126 104//126 105//126
f 108//127 112//127 110//127
f 103//128 109//128 111//128
f 108//129 110//129 118//129
f 111//130 109//130 119//130
f 114//131 49//131 118//131
f 115//132 119//132 113//132
f 110//133 106//133 114//133
f 105//134 111//134 115//134
f 49//135 108//135 118//135
f 109//136 113//136 119//136
f 54//137 116//137 108//137
f 117//138 55//138 109//138
f 117//139 113//139 57//139
f 56//140 49//140 116//140
f 33//141 34//141 17//141
f 33//142 68//142 18//142
f 20//143 24//143 33//143
f 42//144 68//144 33//144
f 27//145 36//145 11//145
f 28//146 35//146 11//146
f 25//147 38//147 36//147
f 26//148 28//148 37//148
f 35//149 80//149 38//149
f 35//150 26//150 39//150
f 24//151 81//151 80//151
f 29//152 35//152 40//152
f 17//153 64//153 61//153
f 62//154 19//154 18//154
f 18//155 63//155 66//155
f 64//156 34//156 65//156
f 19//157 62//157 66//157
f 58//158 72//158 45//158
f 59//159 15//159 45//159
f 72//160 70//160 16//160
f 73//161 45//161 16//161
f 16//162 70//162 69//162
f 60//163 71//163 16//163
f 21//164 24//164 52//164
f 53//165 29//165 41//165
f 50//166 58//166 15//166
f 51//167 14//167 15//167
f 78//168 76//168 44//168
f 79//169 43//169 44//169
f 44//170 76//170 74//170
f 75//171 77//171 44//171
f 13//172 74//172 50//172
f 51//173 75//173 13//173
f 83//174 85//174 87//174
f 88//175 86//175 84//175
f 89//176 87//176 93//176
f 94//177 88//177 90//177
f 95//178 91//178 93//178
f 96//179 113//179 94//179
f 50//180 74//180 91//180
f 92//181 75//181 51//181
f 74//182 76//182 89//182
f 90//183 77//183 75//183
f 76//184 78//184 83//184
f 84//185 79//185 77//185
f 80//186 81//186 83//186
f 40//187 79//187 84//187
f 80//188 78//188 43//188
f 40//189 12//189 43//189
f 36//190 38//190 80//190
f 37//191 11//191 40//191
f 47//192 108//192 87//192
f 88//193 109//193 48//193
f 93//194 87//194 108//194
f 94//195 113//195 109//195
f 70//196 101//196 99//196
f 71//197 60//197 100//197
f 99//198 101//198 54//198
f 100//199 53//199 55//199
f 20//200 99//200 52//200
f 42//201 29//201 53//201
f 56//202 97//202 95//202
f 57//203 113//203 96//203
f 95//204 97//204 58//204
f 96//205 51//205 59//205
f 101//206 97//206 56//206
f 102//207 55//207 57//207
f 72//208 97//208 101//208
f 73//209 71//209 102//209
f 107//210 108//210 116//210
f 117//211 109//211 104//211
f 118//212 110//212 114//212
f 114//213 116//213 49//213
f 113//214 117//214 115//214
f 115//215 111//215 119//215
f 110//216 112//216 106//216
f 105//217 103//217 111//217
f 54//218 56//218 116//218
f 117//219 57//219 55//219
